# xmcd
#
# Track frame offsets:
#       182
#       9075
#       17422
#       28672
#       41475
#       50372
#       58025
#       69847
#       80155
#       87710
#       97612
#       107820
#       120052
#       129087
#       139692
#       148830
#       156627
#       166250
#       175082
#       182885
#
# Disc length: 2580 seconds
#
# Revision: 2
# Processed by: cddbd v1.4PL0 Copyright (c) Steve Scherf et al.
# Submitted via: WhereIsIt 3.50
#
DISCID=fa0a1214
DTITLE=Jim Reeves /Waiting For A Train  Live At The Opry
DYEAR=1994
DGENRE=
TTITLE0=Yonder Comes A Sucker
TTITLE1=Waiting For A Train
TTITLE2=Am I Losing You?
TTITLE3=When God Dips His Love In My Heart
TTITLE4=According To My Heart
TTITLE5=Bimbo
TTITLE6=Mexican Joe
TTITLE7=Anna Marie
TTITLE8=Blue Boy
TTITLE9=Softly And Tenderly
TTITLE10=He'll Have To Go
TTITLE11=Four Walls
TTITLE12=I'd Like To be
TTITLE13=Peace In The Valley
TTITLE14=Billy Bayou
TTITLE15=In A Mansion Stands My Love
TTITLE16=I'm Getting Better
TTITLE17=(Gimme That) Old Time Religion
TTITLE18=I Know One
TTITLE19=I Missed Me
EXTD=Play time: 43:00
EXTT0=
EXTT1=
EXTT2=
EXTT3=
EXTT4=
EXTT5=
EXTT6=
EXTT7=
EXTT8=
EXTT9=
EXTT10=
EXTT11=
EXTT12=
EXTT13=
EXTT14=
EXTT15=
EXTT16=
EXTT17=
EXTT18=
EXTT19=
PLAYORDER=
